# xmcd
#
# Track frame offsets:
#	150
#	16294
#	29615
#	42798
#	57625
#	71362
#	83755
#	97709
#	109963
#	121263
#	135368
#	149030
#	163262
#	180936
#	190502
#	204774
#	222344
#	236711
#	250344
#	259160
#	270924
#	282570
# Disc length: 3951 seconds
# Revision: 1
# Processed by: cddbd v1.5.1PL0 Copyright (c) Steve Scherf et al.
#
# Submitted via: libkcddb 0.21
#
DISCID=390f6d16
DTITLE=Balança Neném - Ao Vivo 2005
DYEAR=2005
DGENRE=Forró
TTITLE0=Depois da Meia Niote
TTITLE1=Cai Fora
TTITLE2=Não Dá
TTITLE3=Jogo Sujo
TTITLE4=Sem Você Não Sei Viver (Ou Ou Ei Ei)
TTITLE5=No Trenzinho da Sacanagem (Forró da Rapariga)
TTITLE6=Sou Raparigueiro
TTITLE7=Festa no Apê
TTITLE8=Doce Tentação
TTITLE9=Deixa Acontecer
TTITLE10=A Lua Me Traiu
TTITLE11=Pra Te Esquecer
TTITLE12=Me Chama Pra Fazer Amor
TTITLE13=Somos Loucos
TTITLE14=Esperando Você Voltar
TTITLE15=Sinônimo de Amor é Amar
TTITLE16=Te Amar Foi Ilusão
TTITLE17=Eu te Esperei
TTITLE18=Tô Morrendo de Paixão
TTITLE19=Minha Cara de Alegria
TTITLE20=Telefone Ocupado
TTITLE21=
EXTD=
EXTT0=
EXTT1=
EXTT2=
EXTT3=
EXTT4=
EXTT5=
EXTT6=
EXTT7=
EXTT8=
EXTT9=
EXTT10=
EXTT11=
EXTT12=
EXTT13=
EXTT14=
EXTT15=
EXTT16=
EXTT17=
EXTT18=
EXTT19=
EXTT20=
EXTT21=
PLAYORDER=
